# xmcd CD database file
#
# Track frame offsets:
#	150
#	29442
#	66457
#	93745
#	115572
#	143572
#	166350
#	193795
#
# Disc length: 2960 seconds
#
# Revision: 0
# Processed by: cddbd v1.4PL0 Copyright (c) Steve Scherf et al.
# Submitted via: CDex 1.50
#
DISCID=6e0b8e08
DTITLE=Various Artist - Merengue Y Que!
DYEAR=2001
DGENRE=Merengue
TTITLE0=Grupo Mania - Linda Eh
TTITLE1=Zafra Negra and Kinito Mendez - Al Que Le Pique
TTITLE2=Peña Zuaso Y La Banda Gorda - El Rey Del Mambo
TTITLE3=Oro Solido - Ta Cache
TTITLE4=Elvis Crespo - Suavemente
TTITLE5=Manny Manunel - Como Duele
TTITLE6=911 - Que Lo Que Ta Pasando
TTITLE7=Joseph Portes - Yo Me Voy De Aqui
EXTD=YEAR: 2001
EXTT0=
EXTT1=
EXTT2=
EXTT3=
EXTT4=
EXTT5=
EXTT6=
EXTT7=
PLAYORDER=
